<?xml version="1.0" encoding="utf-8"?>
<!-- Generator: Adobe Illustrator 22.0.1, SVG Export Plug-In . SVG Version: 6.00 Build 0)  -->
<svg version="1.1" id="Layer_1" xmlns="http://www.w3.org/2000/svg" xmlns:xlink="http://www.w3.org/1999/xlink" x="0px" y="0px"
	 viewBox="0 0 32 32" style="enable-background:new 0 0 32 32;" xml:space="preserve">
<style type="text/css">
	.st0{fill:#FFFFFF;}
	.st1{fill:#F97C00;}
</style>
<g>
	<path class="st0" d="M28.4,32H3.6c-2,0-3.6-1.6-3.6-3.6V3.6C0,1.6,1.6,0,3.6,0h24.8c2,0,3.6,1.6,3.6,3.6v24.8
		C32,30.4,30.4,32,28.4,32z"/>
	<g>
		<path class="st1" d="M21.1,27.3c-0.7,0-1.7-0.4-2.8-1.7c-2.5-3.1-4.4-9.9-1.9-12.7c1.4-1.6,4.2-1.6,5.9-1.4
			c-1.8-2.3-5.6-5.7-8.9-6c-1.3-0.1-2.4,0.3-3.2,1.3c-3.4,4-0.2,10.3,3.1,17c0.4,0.8,0.8,1.6,1.2,2.4c0.2,0.4,0,0.8-0.3,1
			c-0.4,0.2-0.8,0-1-0.3c-0.4-0.8-0.8-1.6-1.2-2.4C8.5,17.6,5,10.6,9,5.9c1.1-1.3,2.7-1.9,4.4-1.8c4.5,0.4,9.2,5.2,10.6,7.6
			c0.2,0.4,0.2,0.8,0,1.1c-0.2,0.3-0.6,0.4-0.9,0.4c-1.3-0.3-3.7-0.5-5.1,0.3c2.6,2.4,5.8,7.7,5.6,11.1c-0.1,1.5-0.8,2.2-1.4,2.5
			C21.9,27.1,21.6,27.3,21.1,27.3z M17,14.4c-1.2,2.4,0.2,7.6,2.3,10.2c0.5,0.6,1.4,1.5,2.1,1.1c0.4-0.3,0.7-0.7,0.7-1.4
			C22.3,21.7,19.5,16.8,17,14.4z"/>
	</g>
	<g>
		<path class="st1" d="M14.4,10.5c-0.2,0-0.5-0.1-0.6-0.3c-0.1-0.2-0.4-0.4-0.6-0.4c-0.2,0-0.4,0-0.6,0.2c-0.3,0.2-0.8,0.2-1-0.1
			c-0.2-0.3-0.2-0.8,0.1-1c0.5-0.4,1.1-0.5,1.8-0.5c0.6,0.1,1.2,0.5,1.6,1c0.2,0.3,0.1,0.8-0.2,1C14.7,10.5,14.6,10.5,14.4,10.5z"/>
	</g>
</g>
</svg>
